<?xml version="1.0" encoding="UTF-8" standalone="no"?>
<!-- Created with Inkscape (http://www.inkscape.org/) -->

<svg
   xmlns:dc="http://purl.org/dc/elements/1.1/"
   xmlns:cc="http://creativecommons.org/ns#"
   xmlns:rdf="http://www.w3.org/1999/02/22-rdf-syntax-ns#"
   xmlns:svg="http://www.w3.org/2000/svg"
   xmlns="http://www.w3.org/2000/svg"
   xmlns:sodipodi="http://sodipodi.sourceforge.net/DTD/sodipodi-0.dtd"
   xmlns:inkscape="http://www.inkscape.org/namespaces/inkscape"
   version="1.1"
   id="svg2"
   xml:space="preserve"
   width="762.5"
   height="372.86533"
   viewBox="0 0 762.5 372.86531"
   sodipodi:docname="bug.svg"
   inkscape:version="0.92.4 5da689c313, 2019-01-14"><metadata
     id="metadata8"><rdf:RDF><cc:Work
         rdf:about=""><dc:format>image/svg+xml</dc:format><dc:type
           rdf:resource="http://purl.org/dc/dcmitype/StillImage" /><dc:title></dc:title></cc:Work></rdf:RDF></metadata><defs
     id="defs6"><clipPath
       clipPathUnits="userSpaceOnUse"
       id="clipPath20"><path
         d="M 0,0 H 5718.75 V 4483.92 H 0 Z"
         id="path18"
         inkscape:connector-curvature="0" /></clipPath></defs><sodipodi:namedview
     pagecolor="#ffffff"
     bordercolor="#666666"
     borderopacity="1"
     objecttolerance="10"
     gridtolerance="10"
     guidetolerance="10"
     inkscape:pageopacity="0"
     inkscape:pageshadow="2"
     inkscape:window-width="1920"
     inkscape:window-height="1015"
     id="namedview4"
     showgrid="false"
     fit-margin-top="0"
     fit-margin-left="0"
     fit-margin-right="0"
     fit-margin-bottom="0"
     inkscape:zoom="1.2829177"
     inkscape:cx="381.24999"
     inkscape:cy="229.83198"
     inkscape:window-x="0"
     inkscape:window-y="0"
     inkscape:window-maximized="1"
     inkscape:current-layer="g10" /><g
     id="g10"
     inkscape:groupmode="layer"
     inkscape:label="bug-insect--publicdomainvectors.org"
     transform="matrix(1.3333333,0,0,-1.3333333,0,597.85599)"><path
       inkscape:connector-curvature="0"
       id="path72"
       style="fill:#949595;fill-opacity:1;fill-rule:nonzero;stroke:none;stroke-width:0.1"
       d="m 565.735,211.599 c -3.834,-0.236 -14.98,-0.716 -14.98,-0.716 l -26.258,-3.069 -1.875,-1.88 -8.042,-1.232 10.338,-0.898 -13.48,0.271 0.081,0.159 -2.071,-0.317 10.063,-0.999 -13.171,0.396 0.096,0.141 -2.115,-0.323 9.783,-1.099 -12.866,0.52 0.108,0.122 -2.142,-0.328 9.494,-1.197 -12.563,0.642 0.108,0.1 -2.152,-0.329 9.2,-1.298 -12.262,0.767 0.097,0.076 -2.144,-0.328 8.903,-1.4 -11.963,0.893 0.072,0.05 -12.712,-1.948 -3.034,-1.15 -54.577,-2.4 -1.408,-0.85 c 36.054,1.453 106.258,-0.389 115.314,-1.24 9.057,-0.848 25.948,-3.874 17.761,-5.226 -5.573,0.863 -15.675,-0.055 -15.675,-0.055 l -3.136,-0.894 -6.62,-0.905 0.174,-0.441 -13.586,-0.929 -1.22,-1.326 -15.502,-0.498 -4.53,-1.777 -19.158,-0.07 -4.878,-0.898 -15.676,-0.057 -4.093,-0.677 -14.63,0.61 -5.357,-0.789 -17.503,0.156 -6.708,-0.686 -51.292,-0.404 -9.58,-0.035 -5.824,-0.433 -22.969,-0.082 -2.23,0.405 -23.405,-0.083 -4.223,0.754 -11.756,-0.041 c 0,0 -13.106,1.166 -19.723,2.464 -33.397,0.653 -32.177,1.98 -32.177,1.98 0,0 -6.792,-0.466 -10.45,-0.037 -0.913,0.106 -1.33,0.469 -1.44,0.955 l -37.847,-7.903 -0.192,-0.039 -0.14,-0.016 -38.079,-4.892 -0.133,-0.017 -0.103,-0.007 -40.659,-2.099 39.897,2.59 36.633,5.322 41.524,9.57 c 0.572,0.84 1.196,1.497 1.196,1.497 l 2.006,2.651 1.955,0.516 -9.119,0.76 -95.022,-10.715 -0.185,-0.022 -0.157,-0.007 -42.3851,-1.9 -0.1519,-0.007 -0.1293,0.004 -40.5371,1.327 L 0,180.04 l 22.4762,0.459 h 0.0258 0.0351 l 40.441,-1.023 41.7099,2.204 94.441,11.568 1.029,0.127 1.251,-0.096 13.901,-1.053 5.998,1.582 28.467,1.894 3.744,-0.648 1.062,2.096 4.122,0.235 -3.259,-0.837 1.762,-1.629 4.237,-0.424 1.948,2.429 2,-2.856 10.826,-0.918 10.25,2.021 c 0,0 -31.377,3.635 -31.522,4.002 -0.145,0.365 -1.972,2.049 -1.972,2.049 0,0 0.019,0.019 0.052,0.056 l -5.303,2.778 6.085,-1.964 c 0.181,0.184 0.386,0.391 0.611,0.618 l -5.079,2.79 5.899,-1.982 c 0.2,0.194 0.408,0.394 0.622,0.596 l -4.905,2.83 5.777,-2.018 c 0.207,0.187 0.417,0.376 0.628,0.561 l -4.788,2.902 5.742,-2.088 c 0.211,0.174 0.421,0.341 0.628,0.502 l -4.754,3.029 5.875,-2.223 c 0.219,0.144 0.43,0.273 0.633,0.383 l -4.891,3.284 7.05,-2.779 c 2.109,0.202 4.276,1.04 4.276,1.04 0,0 -7.005,5.229 -7.584,5.961 -0.581,0.733 -0.233,1.322 3.862,1.997 4.093,0.676 8.418,0.03 8.418,0.03 l -1.829,-0.519 c 0,0 -3.425,0.574 -4.819,-0.312 -0.813,-0.517 3.181,-3.693 6.576,-6.35 l 10.367,1.72 -9.314,-2.545 c 0.161,-0.126 0.319,-0.25 0.475,-0.372 l 8.414,1.397 -7.567,-2.069 c 0.234,-0.185 0.453,-0.363 0.655,-0.528 l 6.486,1.076 -5.862,-1.602 c 0.364,-0.319 0.614,-0.56 0.704,-0.703 l 4.735,0.785 -5.185,-1.416 c -0.302,-0.298 -0.706,-0.681 -1.142,-1.083 l 5.901,0.978 -6.876,-1.879 c -0.352,-0.321 -0.685,-0.624 -0.958,-0.872 l 7.409,1.232 -7.252,-1.982 c 4.899,-0.765 29.614,-4.637 30.501,-4.898 0.987,-0.291 5.745,-3.506 5.745,-3.506 l 0.522,-1.687 22.777,5.258 c 0,0 -19.813,-0.622 -24.818,-0.087 -5.008,0.533 -13.845,3.035 -13.845,3.035 l 9.453,4.773 1.282,0.223 2.348,2.361 -0.121,-1.973 3.089,0.537 2.901,2.539 -0.063,-2.042 4.953,0.863 0.979,2.282 1.396,-1.869 1.834,0.32 2.639,2.654 -0.136,-2.219 3.269,0.572 2.737,2.749 -0.143,-2.299 1.458,0.255 2.955,1.165 -2.758,6.987 -0.783,1.981 9.073,1.136 -5.647,-2.077 4.536,-8.362 -2.223,-1.365 c 0,0 0.727,-0.808 -0.567,-1.143 -0.525,-0.134 -1.15,-0.289 -1.845,-0.456 l 12.566,-0.659 -15.588,-0.06 10e-4,0.01 c -0.35,-0.081 -0.708,-0.163 -1.073,-0.246 l 12.125,-0.634 -15.179,-0.062 c -0.374,-0.085 -0.75,-0.169 -1.128,-0.254 l 11.773,-0.618 -14.75,-0.059 c -0.406,-0.09 -0.808,-0.184 -1.208,-0.276 l 11.423,-0.598 -14.261,-0.056 c -0.435,-0.101 -0.864,-0.202 -1.275,-0.298 l 11.003,-0.576 -13.601,-0.055 c -0.473,-0.12 -0.911,-0.232 -1.302,-0.335 l 10.368,-0.544 -12.308,-0.05 c -0.179,-0.074 -0.276,-0.134 -0.26,-0.174 0.26,-0.661 28.039,-1.442 28.039,-1.442 l 9.01,-4.045 13.613,6.386 4.934,0.016 3.314,0.873 0.469,2.956 1.74,-2.375 1.596,0.42 0.487,3.071 1.807,-2.467 1.512,0.396 0.505,3.186 1.875,-2.56 1.426,0.376 0.522,3.3 1.941,-2.651 1.341,0.352 0.541,3.414 2.008,-2.742 1.257,0.328 0.558,3.529 2.077,-2.834 2.413,0.635 3.483,0.012 c 0,0 10.453,5.179 10.223,5.766 -0.232,0.588 -2.147,1.756 -2.147,1.756 l -4.237,0.425 5.516,0.02 5.309,-1.67 -10.921,-6.944 0.551,-0.659 -1.488,-0.327 12.338,-0.646 -15.575,-0.063 -1.078,-0.235 12.118,-0.635 -15.297,-0.061 -1.136,-0.247 11.899,-0.625 -15.02,-0.059 -1.194,-0.261 11.68,-0.611 -14.744,-0.059 -1.251,-0.274 11.461,-0.6 -14.467,-0.056 -1.308,-0.287 11.24,-0.59 -14.19,-0.057 -3.689,-0.806 0.695,-1.76 -12.517,-6.583 20.815,2.866 29.99,2.458 4.15,-0.207 9.425,1.403 4.953,3.593 -1.577,-3.093 1.775,0.263 5.042,3.511 -1.626,-3.001 1.731,0.256 5.135,3.423 -1.676,-2.908 1.686,0.25 5.232,3.337 -1.725,-2.816 1.633,0.243 5.333,3.252 -1.774,-2.724 1.579,0.236 5.435,3.169 -1.82,-2.632 13.411,1.992 2.583,-0.651 12.019,3.421 -1.042,2.641 -2.407,2.417 -3.425,0.576 4.615,0.089 5.428,-1.228 2.288,-5.797 -15.592,-3.214 -1.911,-1.371 8.35,-0.828 1.127,1.513 0.502,-2.981 1.211,0.245 2.749,3.691 0.509,-3.034 1.155,0.233 2.796,3.755 0.52,-3.086 1.177,0.238 -0.066,0.002 2.831,3.8 0.528,-3.139 1.392,0.28 -0.29,0.014 2.831,3.8 0.537,-3.192 1.608,0.324 -0.515,0.02 2.829,3.8 0.547,-3.243 12.985,2.621 8.128,0.028 20.466,2.277 18.986,0.509 4.049,0.785 4.355,0.016 c 0,0 -2.222,-0.999 -6.053,-1.233" /><path
       inkscape:connector-curvature="0"
       id="path74"
       style="fill:#100f0d;fill-opacity:1;fill-rule:nonzero;stroke:none;stroke-width:0.1"
       d="m 513.248,256.664 -5.146,4.117 c -3.428,2.747 -6.766,5.598 -10.103,8.449 -3.311,2.887 -6.619,5.771 -9.84,8.759 -3.231,2.976 -6.445,5.971 -9.533,9.111 3.559,-2.594 6.994,-5.333 10.41,-8.095 3.429,-2.747 6.768,-5.599 10.105,-8.449 3.311,-2.882 6.621,-5.769 9.841,-8.757 l 4.827,-4.485 c 1.567,-1.545 3.173,-3.043 4.705,-4.629 -1.791,1.284 -3.509,2.654 -5.266,3.979 m -44.444,16.388 -2.824,1.477 8.446,2.564 -11.752,-0.833 -2.554,1.334 9.135,2.775 -12.713,-0.905 -2.282,1.194 9.823,2.984 -13.672,-0.972 -2.012,1.053 10.513,3.192 -14.633,-1.039 -1.742,0.911 10.768,3.269 14.369,-5.247 3.3,3.465 6.664,-6.003 1.508,-8.484 z m -11.5,-1.427 -5.012,2.784 c -1.136,0.633 -2.261,1.281 -3.383,1.936 -0.072,0.044 -0.144,0.085 -0.218,0.129 -1.619,0.946 -3.228,1.909 -4.833,2.876 -0.314,0.192 -0.631,0.383 -0.948,0.575 -0.163,0.1 -0.326,0.198 -0.49,0.296 -1.215,0.754 -2.43,1.511 -3.641,2.273 -0.498,0.311 -0.995,0.624 -1.49,0.94 -1.213,0.769 -2.418,1.552 -3.616,2.344 -0.304,0.202 -0.61,0.398 -0.912,0.602 -0.307,0.205 -0.611,0.409 -0.918,0.613 -1.104,0.738 -2.205,1.48 -3.301,2.232 -0.659,0.453 -1.316,0.912 -1.971,1.375 -1.084,0.763 -2.162,1.538 -3.226,2.335 1.399,-0.684 2.778,-1.4 4.149,-2.131 0.305,-0.161 0.612,-0.32 0.916,-0.485 1.695,-0.914 3.375,-1.85 5.052,-2.795 3.339,-1.859 6.605,-3.835 9.873,-5.811 3.245,-2.012 6.487,-4.027 9.661,-6.155 l 4.755,-3.202 c 1.553,-1.12 3.136,-2.19 4.659,-3.358 -1.731,0.829 -3.403,1.753 -5.106,2.627 m -34.835,29.693 30.603,-11.177 -14.923,-1.059 -16.918,8.845 z m 1.526,4.876 c 1.872,-0.446 3.719,-0.974 5.584,-1.444 3.728,-0.946 7.442,-1.936 11.147,-2.96 3.707,-1.02 7.403,-2.08 11.095,-3.151 3.69,-1.084 7.367,-2.213 11.031,-3.387 l 0.123,-0.039 0.068,-0.057 c 1.342,-1.122 2.688,-2.235 3.998,-3.399 1.316,-1.153 2.645,-2.292 3.933,-3.483 -1.468,0.962 -2.896,1.971 -4.334,2.967 -1.414,0.962 -2.79,1.971 -4.169,2.976 -3.718,0.876 -7.418,1.811 -11.104,2.805 -3.712,1.01 -7.416,2.049 -11.104,3.143 -3.691,1.092 -7.365,2.236 -11.014,3.469 -1.823,0.62 -3.661,1.194 -5.463,1.883 -1.788,0.71 -3.659,1.258 -5.332,2.24 1.786,-0.684 3.688,-1.067 5.541,-1.563 m -2.226,33.917 3.901,4.501 c 1.263,1.527 2.67,2.926 3.625,4.693 -0.28,-2.057 -1.47,-3.834 -2.537,-5.519 -1.109,-1.697 -2.367,-3.269 -3.658,-4.809 -2.63,-3.037 -5.443,-5.908 -8.687,-8.347 2.236,3.383 4.795,6.437 7.356,9.481 m -12.804,-21.983 c -0.95,2.537 -1.835,5.106 -2.903,7.556 -0.27,0.607 -0.537,1.219 -0.837,1.77 -0.141,0.265 -0.319,0.563 -0.442,0.698 -0.034,0.051 -0.07,0.082 -0.025,0.036 0.013,-0.01 0.032,-0.013 0.051,-0.011 -0.015,0.015 -0.085,0.05 -0.123,0.075 l -0.556,0.336 c -1.197,0.856 -2.215,1.702 -3.282,2.577 -4.167,3.524 -8.233,7.133 -12.206,10.852 -3.984,3.706 -7.93,7.45 -11.733,11.351 4.286,-3.364 8.455,-6.854 12.62,-10.347 l 12.439,-10.511 c 1.026,-0.858 2.097,-1.757 3.101,-2.493 l 0.309,-0.207 0.349,-0.221 c 0.194,-0.133 0.268,-0.233 0.336,-0.317 0.32,-0.381 0.47,-0.688 0.651,-1.018 0.339,-0.649 0.62,-1.283 0.876,-1.928 1.008,-2.576 1.883,-5.155 2.654,-7.773 1.576,-5.218 2.994,-10.474 4.161,-15.797 z m -5.076,-15.533 -7.239,2.612 c -4.816,1.762 -9.592,3.624 -14.354,5.526 l -0.152,0.061 -0.118,0.107 c -3.459,3.228 -6.916,6.458 -10.278,9.789 -3.386,3.308 -6.743,6.645 -9.985,10.107 3.709,-2.957 7.302,-6.038 10.868,-9.15 3.548,-3.053 7.002,-6.204 10.454,-9.359 4.717,-1.874 9.416,-3.785 14.078,-5.794 l 7.053,-3.08 c 2.327,-1.083 4.676,-2.116 6.981,-3.253 -2.458,0.757 -4.873,1.62 -7.308,2.434 m -28.157,28.698 c 1.968,-1.525 3.927,-3.059 5.868,-4.618 3.889,-3.084 7.727,-6.231 11.536,-9.415 2.625,-1.564 5.213,-3.193 7.823,-4.786 2.618,-1.627 5.214,-3.294 7.782,-5.012 -2.783,1.341 -5.537,2.732 -8.267,4.163 -2.72,1.454 -5.459,2.868 -8.161,4.35 l -0.043,0.024 -0.058,0.045 c -3.932,3.053 -7.835,6.143 -11.687,9.297 -1.934,1.565 -3.852,3.154 -5.759,4.751 -1.925,1.579 -3.789,3.232 -5.685,4.847 l -0.34,0.29 0.178,0.378 c 1.67,3.507 3.42,6.979 5.234,10.422 -1.278,-3.516 -2.622,-7.003 -4.036,-10.46 1.874,-1.422 3.771,-2.816 5.615,-4.276 m -19.51,27.996 -5.729,-4.599 -0.542,-0.436 -0.683,0.078 -32.876,3.787 c -5.467,0.604 -10.989,1.212 -16.4,1.704 -5.426,0.132 -11.023,0.525 -16.506,0.833 l -33.047,2.09 c -2.754,0.247 -5.471,0.258 -8.243,0.345 l -8.268,0.226 -16.542,0.451 -0.129,0.003 -0.075,0.091 -4.615,5.462 -2.651,3.139 2.792,-2.993 4.8,-5.147 16.445,0.157 8.283,0.079 c 2.744,0.012 5.549,0.112 8.299,-0.051 l 33.072,-1.345 c 5.539,-0.186 10.962,-0.448 16.57,-0.463 5.591,-0.368 11.034,-1.002 16.541,-1.545 l 32.228,-3.468 5.709,4.652 0.536,0.437 0.697,-0.072 23.076,-2.38 22.849,-2.499 11.424,1.773 0.302,0.048 0.286,-0.062 16.292,-3.537 c 5.678,-0.812 11.374,-1.501 17.036,-2.416 l 16.978,-3.187 c 5.643,-1.14 11.299,-2.225 16.929,-3.419 l 16.774,-4.066 0.066,-0.016 0.041,-0.016 29.042,-11.248 0.027,-0.01 0.014,-0.007 11.935,-6.697 -12.212,6.113 -29.353,10.154 -16.782,3.668 c -5.638,1.063 -11.297,2.014 -16.94,3.024 l -16.978,2.79 c -5.667,0.871 -11.37,1.517 -17.051,2.286 l -0.057,0.009 -0.062,0.011 -16.07,3.364 -11.344,-1.848 -0.209,-0.036 -0.223,0.023 -23.079,2.35 z m 7.304,-65.98 c -2.734,3.99 -4.99,8.213 -7.126,12.496 -2.088,4.307 -4.061,8.672 -5.558,13.27 2.732,-3.99 4.987,-8.215 7.128,-12.496 2.092,-4.306 4.064,-8.669 5.556,-13.27 m -28.336,42.288 c -5.216,3.949 -10.355,8.003 -15.175,12.48 5.645,-3.376 10.975,-7.176 16.225,-11.081 5.219,-3.946 10.359,-7.999 15.176,-12.479 -5.648,3.372 -10.977,7.172 -16.226,11.08 m 0.502,-23.214 -4.127,4.809 c -2.749,3.207 -5.399,6.492 -8.052,9.776 -2.621,3.308 -5.251,6.609 -7.788,9.983 l -3.834,5.039 c -1.259,1.697 -2.488,3.415 -3.875,5.006 3.231,-2.769 5.931,-6.051 8.748,-9.199 2.789,-3.176 5.457,-6.453 8.115,-9.735 2.623,-3.311 5.239,-6.626 7.741,-10.032 l 3.745,-5.115 c 1.198,-1.745 2.44,-3.455 3.591,-5.234 -1.463,1.534 -2.839,3.137 -4.264,4.702 m -10.044,-8.466 c -4.464,0.744 -8.926,1.503 -13.376,2.327 l -8.069,-3.656 -0.91,-8.304 c 2.811,-3.545 5.59,-7.116 8.328,-10.723 2.483,-3.214 4.904,-6.476 7.292,-9.767 l -0.237,0.011 c -2.683,2.984 -5.335,5.994 -7.925,9.054 -1.316,1.527 -2.622,3.065 -3.924,4.607 v 0.048 l -0.035,-0.005 c -1.684,1.992 -3.356,3.991 -5.016,6.003 l -0.216,0.263 0.036,0.35 0.927,9.144 0.051,0.502 0.461,0.203 8.798,3.865 0.241,0.107 0.248,-0.051 c 4.521,-0.918 9.029,-1.91 13.533,-2.915 4.51,-0.976 9,-2.053 13.482,-3.177 -4.575,0.642 -9.142,1.329 -13.689,2.114 m -40.702,36.662 c -4.091,4.853 -8.08,9.79 -11.666,15.071 4.635,-4.388 8.866,-9.122 12.999,-13.938 4.091,-4.851 8.082,-9.789 11.666,-15.072 -4.638,4.386 -8.87,9.119 -12.999,13.939 m -9.129,-26.299 c -4.19,-1.52 -8.405,-2.963 -12.634,-4.362 -0.421,-1.675 -0.852,-3.348 -1.306,-5.014 1.228,-4.445 2.407,-8.904 3.501,-13.385 1.149,-4.549 2.239,-9.115 3.205,-13.714 -1.565,4.432 -3.007,8.899 -4.388,13.381 -1.418,4.475 -2.749,8.975 -4.029,13.486 l -0.061,0.217 0.057,0.231 c 0.47,1.898 0.969,3.787 1.483,5.674 l 0.123,0.455 0.438,0.141 c 4.394,1.407 8.802,2.764 13.237,4.043 4.424,1.313 8.867,2.563 13.347,3.701 -4.293,-1.714 -8.622,-3.315 -12.973,-4.854 m -15.347,31.837 c -2.054,1.903 -4.05,3.865 -5.936,5.939 l -0.058,0.063 -0.002,0.004 c -1.331,1.902 -2.634,3.827 -3.741,5.908 1.776,-1.549 3.356,-3.254 4.908,-4.981 l -0.06,0.067 c 2.1,-1.856 4.09,-3.823 6.023,-5.849 1.918,-2.042 3.771,-4.148 5.413,-6.47 -2.346,1.609 -4.477,3.431 -6.547,5.319 m -3.452,-10.034 c -1.277,0.688 -2.575,1.341 -3.833,2.059 l -7.59,4.238 -0.091,0.05 -0.092,0.104 c -2.647,2.966 -5.261,5.962 -7.853,8.979 -0.666,-2.376 -1.338,-4.75 -2.04,-7.115 2.285,-2.646 4.502,-5.352 6.758,-8.024 1.867,-1.843 3.76,-3.657 5.584,-5.548 -2.11,1.593 -4.149,3.268 -6.215,4.91 l -0.009,0.007 -0.028,0.03 c -2.505,2.645 -5.056,5.248 -7.523,7.926 l -0.276,0.299 0.106,0.42 c 0.769,3.048 1.588,6.082 2.408,9.114 l 0.426,1.579 1.07,-1.244 c 2.922,-3.396 5.808,-6.824 8.66,-10.283 l 7.192,-4.632 c 1.225,-0.773 2.411,-1.612 3.619,-2.414 1.203,-0.809 2.404,-1.623 3.587,-2.465 -1.299,0.65 -2.582,1.326 -3.86,2.01 m -36.993,19.578 0.676,1.194 6.63,-4.936 -2.267,-0.641 -2.503,0.265 z m 13.336,-19.376 c -2.607,0.97 -5.166,2.038 -7.695,3.214 -1.272,0.602 -2.543,1.188 -3.791,1.936 -0.322,0.211 -0.624,0.377 -0.976,0.673 -0.382,0.294 -0.606,0.64 -0.824,0.921 -0.169,0.23 -0.326,0.461 -0.483,0.69 -0.247,0.36 -0.486,0.719 -0.716,1.084 -1.067,1.693 -2.062,3.415 -3.021,5.156 -0.389,0.706 -0.774,1.413 -1.152,2.125 -1.335,2.449 -2.596,4.949 -3.726,7.503 1.576,-2.299 3.172,-4.596 4.678,-6.935 l 1.57,-2.362 3.04,-4.576 c 0.379,-0.547 0.749,-1.102 1.135,-1.613 0.012,-0.017 0.024,-0.036 0.038,-0.053 0.209,-0.263 0.381,-0.51 0.567,-0.626 0.181,-0.154 0.489,-0.33 0.754,-0.498 1.16,-0.65 2.398,-1.283 3.638,-1.883 l 7.523,-3.563 0.097,-0.045 0.04,-0.032 c 2.777,-2.219 5.532,-4.469 8.184,-6.861 -3.036,1.812 -5.968,3.764 -8.88,5.745 m -9.336,37.477 0.021,-0.016 0.031,-0.028 c 0.756,-0.715 1.483,-1.462 2.146,-2.276 0.669,-0.806 1.291,-1.663 1.789,-2.649 -1.011,0.443 -1.901,1.018 -2.743,1.641 -0.841,0.613 -1.621,1.29 -2.37,2.002 -1.497,1.258 -2.916,2.614 -4.017,4.362 1.955,-0.714 3.587,-1.828 5.143,-3.036 m 23.256,6 0.049,0.077 0.155,0.115 c 0.853,0.639 1.736,1.23 2.62,1.821 0.901,0.566 1.787,1.153 2.719,1.671 1.847,1.06 3.738,2.053 5.787,2.802 -1.521,-1.564 -3.2,-2.884 -4.922,-4.137 -0.854,-0.638 -1.751,-1.209 -2.635,-1.798 -0.874,-0.548 -1.751,-1.095 -2.653,-1.6 -1.325,-1.599 -2.695,-3.165 -4.274,-4.58 0.893,1.992 2.001,3.827 3.154,5.629 m 33.984,6.526 c 0.616,1.066 1.197,2.154 1.839,3.201 l 0.142,0.232 0.303,-0.02 c 3.886,-0.257 7.771,-0.508 11.644,-0.869 3.875,-0.361 7.745,-0.765 11.61,-1.214 l 1.077,-0.125 -0.375,-0.997 c -1.178,-3.131 -2.395,-6.247 -3.671,-9.341 -1.24,-3.108 -2.56,-6.187 -3.952,-9.238 0.884,3.236 1.842,6.447 2.881,9.626 0.893,2.853 1.841,5.686 2.815,8.508 -3.522,0.342 -7.043,0.715 -10.558,1.131 -3.776,0.445 -7.541,0.996 -11.306,1.543 -0.649,-0.921 -1.341,-1.815 -2.006,-2.726 -0.731,-0.99 -1.469,-1.976 -2.234,-2.944 0.575,1.091 1.18,2.165 1.791,3.233 m 41.962,-2.561 c 4.04,-0.303 8.064,-0.735 12.083,-1.24 l 0.418,-0.052 0.192,-0.339 c 2.212,-3.884 4.301,-7.84 6.18,-11.924 -2.62,3.477 -5.039,7.074 -7.344,10.738 -3.906,0.339 -7.806,0.745 -11.693,1.277 -4.013,0.533 -8.015,1.187 -11.997,2.044 4.073,0.008 8.122,-0.188 12.161,-0.504 m 20.373,0.649 c 4.656,-0.407 9.322,-0.715 13.969,-1.204 l 13.953,-1.366 13.931,-1.567 c 4.648,-0.494 9.28,-1.13 13.917,-1.719 l 0.223,-0.028 0.127,-0.16 c 1.259,-1.585 2.505,-3.181 3.738,-4.787 0.321,-0.419 0.646,-0.836 0.967,-1.257 1.554,-2.027 3.114,-4.048 4.634,-6.102 -1.124,1.224 -2.23,2.464 -3.332,3.705 -0.593,0.668 -1.186,1.336 -1.778,2.004 -1.654,1.847 -3.279,3.715 -4.891,5.596 -4.591,0.385 -9.186,0.729 -13.767,1.208 l -13.951,1.374 -13.931,1.579 c -4.359,0.463 -8.702,1.081 -13.053,1.63 0.68,-1.516 1.338,-3.043 1.995,-4.569 0.776,-1.799 1.554,-3.599 2.294,-5.417 -0.96,1.711 -1.883,3.441 -2.804,5.172 -0.924,1.728 -1.857,3.452 -2.739,5.201 l -0.398,0.785 z m 84.282,-10.741 0.384,-0.016 0.244,-0.345 c 1.503,-2.12 2.76,-4.356 3.796,-6.731 0.493,-1.197 0.933,-2.422 1.217,-3.698 0.269,-1.266 0.45,-2.612 0.142,-3.878 -0.139,1.277 -0.571,2.444 -1.047,3.59 -0.493,1.138 -1.047,2.252 -1.652,3.34 -1.12,2.08 -2.381,4.117 -3.654,6.099 -1.837,0.234 -3.664,0.582 -5.462,1.274 2.034,0.427 4.039,0.452 6.032,0.365 m 14.487,-2.634 c 1.487,-0.031 2.972,-0.102 4.448,-0.241 l 0.267,-0.025 0.17,-0.153 c 1.203,-1.072 1.671,-2.148 2.294,-3.262 0.592,-1.099 1.063,-2.243 1.542,-3.377 0.895,-2.293 1.679,-4.623 2.185,-7.047 -1.278,2.118 -2.383,4.29 -3.524,6.431 -0.544,1.08 -1.134,2.137 -1.7,3.184 -0.53,0.927 -1.143,1.985 -1.72,2.594 -1.371,0.169 -2.734,0.39 -4.094,0.65 -1.46,0.294 -2.918,0.619 -4.359,1.091 1.508,0.159 3.001,0.172 4.491,0.155 m 22.924,-4.141 0.363,-0.065 0.21,-0.355 c 1.075,-1.809 2.039,-3.682 2.976,-5.569 0.898,-1.908 1.766,-3.832 2.427,-5.875 -1.39,1.635 -2.57,3.387 -3.719,5.155 -1.048,1.685 -2.067,3.382 -2.995,5.133 -2.923,0.678 -5.824,1.467 -8.648,2.631 3.192,-0.042 6.301,-0.493 9.386,-1.055 m 20.724,-4.477 0.565,-0.076 0.151,-0.561 c 0.519,-1.91 0.986,-3.834 1.371,-5.782 0.389,-1.944 0.712,-3.907 0.862,-5.917 -0.875,1.817 -1.575,3.678 -2.209,5.557 -0.579,1.699 -1.082,3.418 -1.549,5.148 -3.418,0.538 -6.818,1.202 -10.152,2.318 3.707,0.146 7.342,-0.211 10.961,-0.687 m 13.974,-9.774 c 1.297,0 2.584,-0.068 3.868,-0.189 l 0.492,-0.046 0.212,-0.479 c 0.637,-1.444 1.185,-2.924 1.686,-4.426 0.48,-1.508 0.909,-3.037 1.145,-4.648 -0.972,1.305 -1.751,2.69 -2.48,4.095 -0.634,1.268 -1.22,2.555 -1.747,3.866 -1.108,0.143 -2.212,0.318 -3.311,0.552 -1.266,0.27 -2.529,0.58 -3.777,1.044 1.317,0.192 2.616,0.231 3.912,0.231 m 18.223,-10.134 0.224,-0.008 0.244,-0.21 c 1.323,-1.131 2.574,-2.339 3.744,-3.63 1.166,-1.295 2.284,-2.64 3.206,-4.187 -1.578,0.869 -2.96,1.94 -4.294,3.061 -1.275,1.076 -2.469,2.234 -3.601,3.457 -1.649,0.293 -3.289,0.663 -4.902,1.288 1.815,0.294 3.602,0.301 5.379,0.229 m 2.33,-17.168 c -0.789,-1.611 -1.758,-3.119 -2.815,-4.545 -2.124,-2.859 -4.537,-5.45 -7.213,-7.798 l -0.226,-0.197 -0.24,0.002 c -1.341,0.017 -2.684,0.041 -4.027,0.103 -1.343,0.088 -2.686,0.141 -4.033,0.298 1.33,0.265 2.663,0.427 3.996,0.624 1.23,0.157 2.46,0.281 3.693,0.397 2.321,2.452 4.627,4.963 6.767,7.57 1.104,1.328 2.168,2.686 3.136,4.105 0.963,1.423 1.904,2.877 2.494,4.549 -0.103,-1.78 -0.755,-3.507 -1.532,-5.108 m -22.281,-8.005 c -0.798,-0.728 -1.598,-1.454 -2.446,-2.129 -0.427,-0.336 -0.841,-0.681 -1.288,-1.005 -0.224,-0.163 -0.43,-0.329 -0.677,-0.488 l -0.362,-0.235 c -0.139,-0.088 -0.396,-0.204 -0.594,-0.275 l -0.04,-0.014 -0.07,-0.001 c -1.499,-0.027 -3,-0.023 -4.502,-0.005 -1.504,0.062 -3.004,0.063 -4.512,0.182 1.484,0.291 2.975,0.466 4.461,0.701 1.455,0.187 2.909,0.359 4.365,0.504 0.032,0.055 0.025,0.052 0.103,0.108 l 0.291,0.232 c 0.195,0.142 0.396,0.321 0.595,0.485 0.4,0.326 0.789,0.69 1.183,1.034 l 2.317,2.156 c 1.514,1.474 3.017,2.957 4.453,4.502 1.452,1.532 2.822,3.131 4.109,4.793 1.272,1.671 2.5,3.4 3.232,5.427 -0.236,-2.157 -1.199,-4.196 -2.293,-6.058 -1.116,-1.866 -2.411,-3.619 -3.823,-5.257 -1.423,-1.628 -2.909,-3.201 -4.502,-4.657 m -20.968,-0.985 c -0.937,-0.878 -1.723,-1.687 -2.93,-2.53 l -0.146,-0.103 -0.197,0.007 c -1.578,0.053 -3.155,0.141 -4.732,0.239 -1.579,0.136 -3.156,0.215 -4.734,0.403 1.577,0.197 3.154,0.288 4.73,0.431 1.494,0.102 2.986,0.192 4.48,0.255 0.733,0.658 1.618,1.587 2.401,2.408 l 2.464,2.71 c 1.608,1.839 3.196,3.695 4.7,5.616 1.528,1.902 2.982,3.863 4.319,5.899 1.339,2.034 2.606,4.127 3.544,6.423 -0.437,-2.447 -1.413,-4.79 -2.55,-7.006 -1.15,-2.223 -2.516,-4.32 -3.993,-6.324 -1.491,-1.995 -3.061,-3.929 -4.753,-5.752 -0.84,-0.916 -1.703,-1.813 -2.603,-2.676 m -16.03,4.708 c -2.103,-1.966 -4.328,-3.776 -6.98,-5.113 l -0.182,-0.093 -0.172,0.026 c -1.66,0.256 -3.323,0.483 -4.981,0.764 -1.654,0.307 -3.314,0.566 -4.963,0.923 1.687,0.004 3.365,-0.088 5.047,-0.134 1.601,-0.069 3.198,-0.185 4.797,-0.278 2.22,1.432 4.32,3.239 6.254,5.128 1.965,1.951 3.791,4.045 5.483,6.249 0.826,1.118 1.683,2.217 2.43,3.394 0.817,1.132 1.552,2.32 2.284,3.512 0.763,1.179 1.358,2.447 2.106,3.646 0.68,1.231 1.289,2.5 1.992,3.736 -0.839,-2.701 -1.826,-5.378 -3.113,-7.919 -1.226,-2.574 -2.707,-5.025 -4.355,-7.367 -1.702,-2.3 -3.553,-4.505 -5.647,-6.474 m -28.087,-2.752 -0.206,-0.161 -0.217,0.034 c -2.647,0.41 -5.288,0.872 -7.921,1.407 2.595,-0.026 5.182,-0.121 7.763,-0.264 2.05,1.947 4.041,4.005 5.951,6.106 1.966,2.147 3.842,4.373 5.644,6.652 1.82,2.27 3.487,4.653 5.088,7.084 1.616,2.428 3.02,4.983 4.39,7.601 -0.846,-2.821 -1.942,-5.599 -3.347,-8.213 -1.419,-2.606 -2.991,-5.137 -4.791,-7.499 -3.567,-4.748 -7.671,-9.068 -12.354,-12.747 m 132.674,-84.612 c -3.827,1.283 -14.96,4.22 -14.96,4.22 l -26.182,14.646 -1.83,7.675 -8.013,5.653 10.357,2.647 -13.483,0.14 0.076,-0.636 -2.062,1.455 10.083,3.064 -13.176,-0.376 0.093,-0.569 -2.106,1.485 9.804,3.485 -12.874,-0.897 0.104,-0.496 -2.134,1.506 9.519,3.908 -12.574,-1.416 0.106,-0.413 -2.144,1.514 9.228,4.339 -12.277,-1.943 0.097,-0.313 -2.138,1.506 8.932,4.773 -11.98,-2.473 0.073,-0.2 -12.666,8.935 -3.007,4.866 -54.506,14.556 -1.39,3.521 c 36.013,-9.082 106.24,-8.134 115.314,-5.57 9.072,2.562 26.028,13.097 17.874,19.239 -5.591,-2.932 -15.669,1.654 -15.669,1.654 l -3.114,3.85 -6.597,4.217 0.183,1.741 -13.562,4.953 -1.189,5.407 -15.487,3.395 -4.488,7.516 -19.151,2.021 -4.858,4.034 -15.669,1.654 -4.077,3.071 -14.64,-1.095 -5.338,3.644 -17.501,0.968 -6.689,3.346 -51.271,6.293 -9.577,1.011 -5.813,2.264 -22.961,2.424 -2.237,-1.414 -23.399,2.47 -4.238,-2.634 -11.752,1.241 c 0,0 -13.129,-3.455 -19.775,-8.036 -33.403,0.445 -32.213,-4.962 -32.213,-4.962 0,0 -6.781,2.477 -10.446,1.103 -0.918,-0.344 -1.342,-1.757 -1.462,-3.682 l -37.657,34.987 -0.19,0.179 -0.141,0.084 -37.957,22.999 -0.132,0.081 -0.103,0.03 -40.6005,12.086 39.8265,-13.973 36.502,-24.593 41.294,-41.987 c 0.554,-3.394 1.163,-6.074 1.163,-6.074 l 1.944,-10.768 1.943,-2.234 -9.134,-2.211 -94.753,51.443 -0.183,0.101 -0.158,0.042 -42.3289,11.453 -0.1535,0.042 -0.1293,-0.006 -40.5567,-1.596 -22.529272,3.211 22.460172,-3.883 0.0246,-0.005 0.0355,0.001 40.4547,0.393 41.6457,-12.605 94.154,-54.791 1.025,-0.597 1.254,0.265 13.921,2.934 5.96,-6.856 28.417,-10.155 3.758,2.245 1.013,-8.469 4.116,-1.316 -3.24,3.644 1.799,6.338 4.247,1.312 1.891,-9.883 2.065,11.226 10.846,2.669 10.199,-8.998 c 0,0 -31.451,-11.645 -31.604,-13.095 -0.154,-1.452 -2.02,-8.004 -2.02,-8.004 0,0 0.019,-0.08 0.051,-0.226 l -5.364,-10.605 6.128,7.288 c 0.176,-0.754 0.377,-1.605 0.597,-2.525 l -5.143,-10.674 5.944,7.373 c 0.196,-0.794 0.4,-1.612 0.609,-2.44 l -4.97,-10.845 5.823,7.532 c 0.202,-0.77 0.408,-1.54 0.614,-2.302 l -4.853,-11.144 5.788,7.815 c 0.207,-0.714 0.414,-1.403 0.617,-2.064 l -4.822,-11.662 5.924,8.341 c 0.215,-0.592 0.425,-1.126 0.624,-1.59 l -4.964,-12.662 7.111,10.448 c 2.102,-0.992 4.252,-4.541 4.252,-4.541 0,0 -7.124,-20.228 -7.72,-23.099 -0.596,-2.871 -0.261,-5.255 3.816,-8.325 4.076,-3.071 8.416,-0.888 8.416,-0.888 l -1.818,2.244 c 0,0 -3.437,-1.983 -4.811,1.684 -0.8,2.138 3.265,14.444 6.72,24.745 l 10.326,-7.812 -9.254,11.005 c 0.164,0.489 0.326,0.972 0.483,1.444 l 8.38,-6.343 -7.517,8.941 c 0.238,0.725 0.46,1.415 0.666,2.056 l 6.462,-4.889 -5.826,6.929 c 0.372,1.234 0.628,2.184 0.72,2.747 l 4.714,-3.567 -5.151,6.127 c -0.292,1.21 -0.689,2.775 -1.115,4.427 l 5.877,-4.447 -6.831,8.126 c -0.345,1.319 -0.67,2.551 -0.938,3.565 l 7.379,-5.583 -7.206,8.569 c 4.917,2.612 29.712,15.809 30.607,16.771 0.993,1.069 5.822,13.469 5.822,13.469 l 0.561,6.691 22.651,-23.078 c 0,0 -19.794,4.29 -24.811,2.62 -5.018,-1.672 -13.911,-10.857 -13.911,-10.857 l 9.342,-19.91 1.279,-1.011 2.293,-9.637 -0.077,7.886 3.076,-2.431 2.842,-10.395 -0.015,8.161 4.93,-3.895 0.927,-9.205 1.439,7.337 1.826,-1.445 2.578,-10.832 -0.086,8.862 3.257,-2.574 2.672,-11.226 -0.089,9.186 1.451,-1.146 2.928,-4.919 -2.918,-27.64 -0.827,-7.837 9.044,-5.354 -5.599,8.807 4.725,32.95 -2.19,5.659 c 0,0 0.744,3.152 -0.54,4.604 -0.521,0.592 -1.144,1.264 -1.835,1.996 l 12.577,1.483 -15.581,1.666 v -0.044 c -0.348,0.354 -0.704,0.716 -1.066,1.083 l 12.135,1.429 -15.173,1.625 c -0.372,0.372 -0.746,0.746 -1.121,1.122 l 11.784,1.389 -14.744,1.578 c -0.404,0.407 -0.805,0.809 -1.203,1.211 l 11.434,1.346 -14.257,1.528 c -0.432,0.445 -0.858,0.884 -1.267,1.311 l 11.012,1.298 -13.594,1.455 c -0.471,0.516 -0.906,1.005 -1.295,1.457 l 10.378,1.223 -12.305,1.318 c -0.176,0.314 -0.273,0.561 -0.256,0.722 0.276,2.61 28.065,3.197 28.065,3.197 l 9.101,15.326 13.463,-26.729 4.933,-0.522 3.294,-3.78 0.401,-11.848 1.794,9.324 1.586,-1.822 0.417,-12.304 1.862,9.685 1.502,-1.725 0.432,-12.759 1.932,10.044 1.417,-1.627 0.448,-13.218 2.001,10.405 1.333,-1.529 0.462,-13.676 2.071,10.764 1.248,-1.431 0.478,-14.134 2.14,11.125 2.398,-2.755 3.482,-0.368 c 0,0 10.334,-21.63 10.089,-23.95 -0.246,-2.323 -2.187,-6.812 -2.187,-6.812 l -4.246,-1.312 5.514,-0.583 5.347,6.186 -10.759,28.716 0.566,2.581 -1.481,1.436 12.349,1.455 -15.569,1.666 -1.072,1.042 12.129,1.429 -15.292,1.636 -1.129,1.096 11.91,1.403 -15.016,1.607 -1.187,1.15 11.69,1.379 -14.737,1.577 -1.245,1.207 11.471,1.351 -14.462,1.549 -1.301,1.262 11.252,1.326 -14.186,1.515 -3.67,3.561 0.735,6.965 -12.363,27.419 20.745,-13.341 29.925,-12.547 4.154,0.441 9.39,-6.451 4.869,-14.802 -1.505,12.493 1.768,-1.216 4.962,-14.466 -1.558,12.127 1.725,-1.185 5.056,-14.13 -1.609,11.761 1.679,-1.152 5.155,-13.798 -1.662,11.397 1.629,-1.119 5.257,-13.466 -1.711,11.031 1.572,-1.079 5.362,-13.141 -1.759,10.666 13.36,-9.179 2.598,2.367 11.939,-14.757 -1.103,-10.446 -2.461,-9.424 -3.437,-1.987 4.611,-0.778 5.454,4.411 2.42,22.926 -15.513,14.255 -1.88,5.646 8.366,2.54 1.092,-6.146 0.571,11.858 1.203,-1.086 2.663,-14.987 0.581,12.064 1.149,-1.033 2.71,-15.246 0.59,12.273 1.171,-1.055 -0.066,-0.004 2.743,-15.428 0.599,12.481 1.387,-1.248 -0.29,-0.02 2.742,-15.429 0.61,12.691 1.601,-1.442 -0.516,-0.036 2.743,-15.426 0.619,12.897 12.922,-11.641 8.124,-0.858 20.41,-10.956 18.968,-3.763 4.032,-3.507 4.353,-0.459 c 0,0 -2.198,4.193 -6.023,5.478" /></g></svg>